<svg width="960" height="160" viewBox="0 0 960 160" fill="none" xmlns="http://www.w3.org/2000/svg">
<path d="M307.52 119V31.96H353.6V41.176H317.76V70.872H346.816V80.088H317.76V119H307.52ZM366.651 41.048C365.627 39.8533 365.115 38.36 365.115 36.568C365.115 34.776 365.627 33.3253 366.651 32.216C367.675 31.0213 369.168 30.424 371.131 30.424C373.094 30.424 374.63 31.0213 375.739 32.216C376.848 33.4107 377.403 34.8613 377.403 36.568C377.403 38.2747 376.848 39.7253 375.739 40.92C374.63 42.1147 373.094 42.712 371.131 42.712C369.168 42.712 367.675 42.1573 366.651 41.048ZM366.395 119V55H376.123V119H366.395ZM429.865 53.208C443.86 53.208 450.857 62.168 450.857 80.088V119H441.129V80.088C441.129 67.9707 436.82 61.912 428.201 61.912C423.252 61.912 418.729 64.472 414.633 69.592C410.622 74.712 408.489 81.752 408.233 90.712V119H398.505V67.8L397.225 55L405.673 54.36L408.105 67.544C410.75 62.936 414.036 59.3947 417.961 56.92C421.886 54.4453 425.854 53.208 429.865 53.208ZM491.348 120.792C484.009 120.792 477.993 118.019 473.3 112.472C468.607 106.925 466.26 98.9467 466.26 88.536C466.26 78.04 469.204 69.5493 475.092 63.064C481.065 56.4933 488.617 53.208 497.748 53.208C502.271 53.208 506.836 54.0187 511.444 55.64V29.4H521.172V106.2L522.452 119L514.004 119.64L511.828 108.12C507.049 116.568 500.223 120.792 491.348 120.792ZM475.988 88.28C475.988 95.96 477.609 101.848 480.852 105.944C484.095 110.04 488.233 112.088 493.268 112.088C498.388 112.088 502.697 109.571 506.196 104.536C509.695 99.416 511.444 92.2053 511.444 82.904V65.112C507.177 62.9787 502.612 61.912 497.748 61.912C491.433 61.912 486.228 64.3867 482.132 69.336C478.036 74.2 475.988 80.5147 475.988 88.28ZM544.526 41.048C543.502 39.8533 542.99 38.36 542.99 36.568C542.99 34.776 543.502 33.3253 544.526 32.216C545.55 31.0213 547.043 30.424 549.006 30.424C550.969 30.424 552.505 31.0213 553.614 32.216C554.723 33.4107 555.278 34.8613 555.278 36.568C555.278 38.2747 554.723 39.7253 553.614 40.92C552.505 42.1147 550.969 42.712 549.006 42.712C547.043 42.712 545.55 42.1573 544.526 41.048ZM544.27 119V55H553.998V119H544.27ZM607.74 53.208C621.735 53.208 628.732 62.168 628.732 80.088V119H619.004V80.088C619.004 67.9707 614.695 61.912 606.076 61.912C601.127 61.912 596.604 64.472 592.508 69.592C588.497 74.712 586.364 81.752 586.108 90.712V119H576.38V67.8L575.1 55L583.548 54.36L585.98 67.544C588.625 62.936 591.911 59.3947 595.836 56.92C599.761 54.4453 603.729 53.208 607.74 53.208ZM699.047 114.648C699.047 124.888 696.06 133.251 690.087 139.736C684.199 146.307 676.818 149.592 667.943 149.592C659.154 149.592 651.218 147.117 644.135 142.168L648.999 134.616C651.047 136.323 653.778 137.731 657.191 138.84C660.604 139.949 664.06 140.504 667.559 140.504C673.874 140.504 679.079 138.072 683.175 133.208C687.271 128.344 689.319 122.115 689.319 114.52V108.504C684.54 116.696 677.842 120.792 669.223 120.792C661.884 120.792 655.868 118.019 651.175 112.472C646.482 106.925 644.135 98.9467 644.135 88.536C644.135 78.04 647.079 69.5493 652.967 63.064C658.94 56.4933 666.322 53.208 675.111 53.208C683.986 53.208 691.964 55.6827 699.047 60.632V114.648ZM653.863 88.28C653.863 95.96 655.484 101.848 658.727 105.944C661.97 110.04 666.108 112.088 671.143 112.088C676.263 112.088 680.572 109.528 684.071 104.408C687.57 99.288 689.319 91.992 689.319 82.52V65.112C685.052 62.9787 680.487 61.912 675.623 61.912C669.308 61.912 664.103 64.3867 660.007 69.336C655.911 74.2 653.863 80.5147 653.863 88.28ZM731.763 111.832C740.382 111.832 744.691 106.029 744.691 94.424V31.96H754.931V94.424C754.931 102.872 752.883 109.443 748.787 114.136C744.776 118.744 739.571 121.048 733.171 121.048C723.87 121.048 716.104 117.933 709.875 111.704L715.507 104.536C720.627 109.4 726.046 111.832 731.763 111.832ZM777.94 111.448C773.247 105.133 770.9 96.984 770.9 87C770.9 77.016 773.247 68.9093 777.94 62.68C782.633 56.3653 789.631 53.208 798.932 53.208C808.319 53.208 815.401 56.3653 820.18 62.68C824.959 68.9093 827.348 77.016 827.348 87C827.348 96.984 824.959 105.133 820.18 111.448C815.401 117.677 808.319 120.792 798.932 120.792C789.631 120.792 782.633 117.677 777.94 111.448ZM785.236 68.952C782.164 73.56 780.628 79.576 780.628 87C780.628 94.424 782.164 100.483 785.236 105.176C788.308 109.784 792.916 112.088 799.06 112.088C805.204 112.088 809.812 109.784 812.884 105.176C816.041 100.483 817.62 94.424 817.62 87C817.62 79.576 816.041 73.56 812.884 68.952C809.812 64.2587 805.204 61.912 799.06 61.912C792.916 61.912 788.308 64.2587 785.236 68.952ZM853.078 29.4V65.496C857.771 57.304 864.683 53.208 873.814 53.208C880.982 53.208 886.827 55.9813 891.35 61.528C895.958 67.0747 898.262 75.096 898.262 85.592C898.262 96.0027 895.275 104.493 889.302 111.064C883.414 117.549 876.203 120.792 867.67 120.792C859.137 120.792 852.95 118.403 849.11 113.624C845.27 108.76 843.35 102.189 843.35 93.912V29.4H853.078ZM888.534 85.72C888.534 77.9547 887.083 72.0667 884.182 68.056C881.281 63.96 877.185 61.912 871.894 61.912C866.689 61.912 862.294 64.2587 858.71 68.952C855.126 73.6453 853.249 80.856 853.078 90.584V93.912C853.078 99.288 854.187 103.683 856.406 107.096C858.71 110.424 862.166 112.088 866.774 112.088C873.089 112.088 878.294 109.656 882.39 104.792C886.486 99.8427 888.534 93.4853 888.534 85.72ZM932.273 111.96C936.028 111.96 939.185 111.064 941.745 109.272C944.305 107.48 945.585 105.261 945.585 102.616C945.585 99.8853 944.86 97.752 943.409 96.216C941.958 94.5947 940.38 93.4427 938.673 92.76C937.052 92.0773 934.705 91.3093 931.633 90.456C928.561 89.5173 926.214 88.7493 924.593 88.152C922.972 87.4693 921.052 86.4453 918.833 85.08C914.652 82.52 912.561 78.168 912.561 72.024C912.561 65.7947 914.652 61.1013 918.833 57.944C923.014 54.7867 927.921 53.208 933.553 53.208C937.052 53.208 940.55 53.6773 944.049 54.616C947.633 55.5547 950.321 56.536 952.113 57.56L948.529 65.368C944.433 63.1493 939.441 62.04 933.553 62.04C930.566 62.04 927.921 62.8507 925.617 64.472C923.398 66.008 922.289 68.0133 922.289 70.488C922.289 72.8773 922.972 74.7547 924.337 76.12C925.702 77.4853 927.11 78.4667 928.561 79.064C930.012 79.6613 932.23 80.3867 935.217 81.24C938.204 82.0933 940.593 82.904 942.385 83.672C944.262 84.3547 946.353 85.464 948.657 87C953.094 89.9867 955.313 94.7227 955.313 101.208C955.313 107.608 953.094 112.472 948.657 115.8C944.305 119.128 938.844 120.792 932.273 120.792C923.398 120.792 915.889 117.933 909.745 112.216L914.993 105.176C919.686 109.699 925.446 111.96 932.273 111.96Z" fill="white"/>
<g filter="url(#filter0_d_5_64)">
<path d="M89.4988 151H154V113.5C144.468 112.363 140.367 111.08 135.287 107.516L123.74 95.5479C119.17 88.1244 118.099 83.8415 118.564 76H80.7394V87.9681L84.3228 101.532C84.8206 105.084 85.6153 106.936 86.7118 113.5C76.9144 113.798 71.8423 112.796 63.6187 108.713C57.938 106.709 55.2046 104.673 50.8778 99.9362C47.7051 94.1355 46.1446 91.1762 43.711 86.3724V64.4309C43.711 64.4309 48.4225 56.3793 52.4704 52.0639L62.4243 43.6862C68.6812 39.9834 72.7385 39.0314 80.7394 38.899L80.7394 1C80.7394 1 69.9892 1.50463 62.4243 3.39362C54.8593 5.28261 51.8772 6.49466 47.6925 9.37766C40.2663 12.6596 41.0373 12.74 32.1645 19.75C23.2916 26.76 19.1062 31.1916 13.8493 40.4947C8.59243 49.7978 6.24687 53.3954 5.08991 62.4362L5.08991 87.9681V91.9575L8.67331 103.128L13.8493 113.5L23.0069 125.867L37.7387 138.234C45.2565 143.428 50.3544 145.487 60.4335 148.207C60.4335 148.207 80.7394 151 89.4988 151Z" fill="#A89DF7"/>
<path d="M154 151C154 151 98.2583 151 89.4988 151M154 151V113.5C144.468 112.363 140.367 111.08 135.287 107.516L123.74 95.5479C119.17 88.1244 118.099 83.8415 118.564 76H80.7394V87.9681L84.3228 101.532C84.8206 105.084 85.6153 106.936 86.7118 113.5C76.9144 113.798 71.8423 112.796 63.6187 108.713C57.938 106.709 55.2046 104.673 50.8778 99.9362C47.7051 94.1355 46.1446 91.1762 43.711 86.3724V64.4309C43.711 64.4309 48.4225 56.3793 52.4704 52.0639M154 151H89.4988M89.4988 151C80.7394 151 60.4335 148.207 60.4335 148.207C50.3544 145.487 45.2565 143.428 37.7387 138.234L23.0069 125.867L13.8493 113.5L8.67331 103.128L5.08991 91.9575M5.08991 91.9575C5.08991 90.5592 5.08991 89.2354 5.08991 87.9681M5.08991 91.9575V87.9681M5.08991 62.4362C6.24687 53.3954 8.59243 49.7978 13.8493 40.4947C19.1062 31.1916 23.2916 26.76 32.1645 19.75C41.0373 12.74 40.2663 12.6596 47.6925 9.37766C51.8772 6.49466 54.8593 5.28261 62.4243 3.39362C69.9892 1.50463 80.7394 1 80.7394 1L80.7394 38.899C72.7385 39.0314 68.6812 39.9834 62.4243 43.6862M5.08991 62.4362C4.9656 72.9277 4.97454 79.1213 5.08991 87.9681M5.08991 62.4362L5.08991 87.9681M62.4243 43.6862C58.537 46.9579 56.3576 48.7922 52.4704 52.0639M62.4243 43.6862L52.4704 52.0639" stroke="black"/>
</g>
<g filter="url(#filter1_d_5_64)">
<path d="M161.501 1L97 1V38.5C106.532 39.6372 110.633 40.9202 115.713 44.484L127.26 56.4521C131.83 63.8756 132.901 68.1585 132.436 76H170.261V64.0319L166.677 50.4681C166.179 46.9159 165.385 45.0635 164.288 38.5C174.086 38.2017 179.158 39.204 187.381 43.2872C193.062 45.2915 195.795 47.3265 200.122 52.0638C203.295 57.8645 204.855 60.8238 207.289 65.6276V87.5691C207.289 87.5691 202.577 95.6207 198.53 99.9361L188.576 108.314C182.319 112.017 178.261 112.969 170.261 113.101V151C170.261 151 181.011 150.495 188.576 148.606C196.141 146.717 199.123 145.505 203.307 142.622C210.734 139.34 209.963 139.26 218.836 132.25C227.708 125.24 231.894 120.808 237.151 111.505C242.408 102.202 244.753 98.6046 245.91 89.5638V64.0319V60.0425L242.327 48.8723L237.151 38.5L227.993 26.133L213.261 13.766C205.743 8.57175 200.646 6.51262 190.566 3.79255C190.566 3.79255 170.261 1 161.501 1Z" fill="#A89DF7"/>
<path d="M97 1C97 1 152.742 1 161.501 1M97 1V38.5C106.532 39.6372 110.633 40.9202 115.713 44.484L127.26 56.4521C131.83 63.8756 132.901 68.1585 132.436 76H170.261V64.0319L166.677 50.4681C166.179 46.9159 165.385 45.0635 164.288 38.5C174.086 38.2017 179.158 39.204 187.381 43.2872C193.062 45.2915 195.795 47.3265 200.122 52.0638C203.295 57.8645 204.855 60.8238 207.289 65.6276V87.5691C207.289 87.5691 202.577 95.6207 198.53 99.9361M97 1L161.501 1M161.501 1C170.261 1 190.566 3.79255 190.566 3.79255C200.646 6.51262 205.743 8.57175 213.261 13.766L227.993 26.133L237.151 38.5L242.327 48.8723L245.91 60.0425M245.91 60.0425C245.91 61.4408 245.91 62.7646 245.91 64.0319M245.91 60.0425V64.0319M245.91 89.5638C244.753 98.6046 242.408 102.202 237.151 111.505C231.894 120.808 227.708 125.24 218.836 132.25C209.963 139.26 210.734 139.34 203.307 142.622C199.123 145.505 196.141 146.717 188.576 148.606C181.011 150.495 170.261 151 170.261 151V113.101C178.261 112.969 182.319 112.017 188.576 108.314M245.91 89.5638C246.034 79.0723 246.025 72.8787 245.91 64.0319M245.91 89.5638V64.0319M188.576 108.314C192.463 105.042 194.642 103.208 198.53 99.9361M188.576 108.314L198.53 99.9361" stroke="black"/>
</g>
<defs>
<filter id="filter0_d_5_64" x="0.5" y="0.476013" width="158" height="159.024" filterUnits="userSpaceOnUse" color-interpolation-filters="sRGB">
<feFlood flood-opacity="0" result="BackgroundImageFix"/>
<feColorMatrix in="SourceAlpha" type="matrix" values="0 0 0 0 0 0 0 0 0 0 0 0 0 0 0 0 0 0 127 0" result="hardAlpha"/>
<feOffset dy="4"/>
<feGaussianBlur stdDeviation="2"/>
<feComposite in2="hardAlpha" operator="out"/>
<feColorMatrix type="matrix" values="0 0 0 0 0 0 0 0 0 0 0 0 0 0 0 0 0 0 0.25 0"/>
<feBlend mode="normal" in2="BackgroundImageFix" result="effect1_dropShadow_5_64"/>
<feBlend mode="normal" in="SourceGraphic" in2="effect1_dropShadow_5_64" result="shape"/>
</filter>
<filter id="filter1_d_5_64" x="92.5" y="0.5" width="158" height="159.024" filterUnits="userSpaceOnUse" color-interpolation-filters="sRGB">
<feFlood flood-opacity="0" result="BackgroundImageFix"/>
<feColorMatrix in="SourceAlpha" type="matrix" values="0 0 0 0 0 0 0 0 0 0 0 0 0 0 0 0 0 0 127 0" result="hardAlpha"/>
<feOffset dy="4"/>
<feGaussianBlur stdDeviation="2"/>
<feComposite in2="hardAlpha" operator="out"/>
<feColorMatrix type="matrix" values="0 0 0 0 0 0 0 0 0 0 0 0 0 0 0 0 0 0 0.25 0"/>
<feBlend mode="normal" in2="BackgroundImageFix" result="effect1_dropShadow_5_64"/>
<feBlend mode="normal" in="SourceGraphic" in2="effect1_dropShadow_5_64" result="shape"/>
</filter>
</defs>
</svg>
